<?xml version="1.0" standalone="no"?>
<!DOCTYPE svg PUBLIC "-//W3C//DTD SVG 20010904//EN"
 "http://www.w3.org/TR/2001/REC-SVG-20010904/DTD/svg10.dtd">
<svg version="1.0" xmlns="http://www.w3.org/2000/svg"
 width="1280.000000pt" height="666.000000pt" viewBox="0 0 1280.000000 666.000000"
 preserveAspectRatio="xMidYMid meet">

<g transform="translate(0.000000,666.000000) scale(0.100000,-0.100000)"
fill="#000000" stroke="none">
<path d="M4193 3909 c-177 -9 -241 -22 -291 -59 -85 -61 -106 -165 -106 -510
0 -256 11 -359 47 -430 29 -57 86 -97 157 -110 166 -31 905 -37 1160 -10 210
23 249 79 271 389 16 247 -4 508 -46 596 -47 98 -109 120 -380 135 -204 11
-601 11 -812 -1z m479 -444 c114 -66 206 -120 205 -121 -4 -4 -373 -216 -399
-230 l-28 -15 0 246 c0 136 3 244 8 242 4 -2 100 -57 214 -122z"/>
<path d="M8007 3874 c-4 -4 -7 -236 -7 -516 l0 -509 67 3 c65 3 67 4 77 36 11
31 12 31 24 11 20 -32 98 -62 144 -56 90 12 123 70 140 240 16 155 1 365 -31
430 -42 87 -150 100 -223 27 l-38 -37 -2 186 -3 186 -70 3 c-39 1 -74 0 -78
-4z m269 -440 c24 -56 16 -409 -9 -447 -20 -31 -60 -36 -89 -10 -16 15 -18 35
-18 228 0 200 1 214 21 239 14 18 30 26 50 26 25 0 33 -6 45 -36z"/>
<path d="M5621 3768 c11 -40 54 -194 95 -341 l74 -268 0 -155 0 -154 80 0 80
0 0 166 0 166 90 319 c50 176 90 324 90 329 0 6 -35 10 -79 10 l-78 0 -47
-217 c-26 -120 -50 -231 -53 -248 -4 -22 -17 23 -49 175 -23 113 -47 223 -51
245 l-9 40 -81 3 -82 3 20 -73z"/>
<path d="M7030 3775 l0 -65 80 0 80 0 0 -430 0 -430 80 0 80 0 0 430 0 430 80
0 80 0 0 65 0 65 -240 0 -240 0 0 -65z"/>
<path d="M6260 3579 c-74 -15 -127 -68 -152 -153 -20 -67 -16 -378 5 -447 30
-100 110 -146 232 -136 160 12 200 94 193 396 -5 192 -16 242 -65 293 -42 44
-132 64 -213 47z m108 -154 c10 -29 12 -93 10 -230 -3 -162 -6 -195 -21 -218
-21 -32 -47 -35 -73 -6 -17 19 -19 39 -19 244 0 246 3 259 59 253 26 -3 33 -9
44 -43z"/>
<path d="M8666 3575 c-54 -19 -92 -60 -113 -119 -23 -66 -26 -407 -4 -471 39
-114 129 -161 256 -135 92 19 141 74 147 166 l3 49 -72 3 -73 3 0 -41 c0 -65
-49 -100 -96 -66 -16 12 -20 29 -22 105 l-4 91 137 0 138 0 -6 138 c-5 149
-17 196 -59 241 -45 47 -153 64 -232 36z m113 -114 c20 -20 36 -117 29 -176
-3 -29 -5 -30 -61 -33 l-59 -3 4 101 c2 87 6 104 22 116 27 19 42 18 65 -5z"/>
<path d="M6630 3263 c0 -281 2 -312 19 -350 43 -95 173 -99 248 -8 l31 37 6
-46 7 -46 65 0 64 0 0 360 0 360 -80 0 -80 0 0 -279 c0 -154 -3 -287 -6 -296
-4 -8 -19 -22 -35 -31 -32 -16 -62 -7 -73 22 -3 8 -6 144 -6 300 l0 284 -80 0
-80 0 0 -307z"/>
<path d="M7460 3285 c0 -161 5 -305 11 -333 25 -119 159 -152 250 -61 40 40
45 39 51 -11 3 -23 7 -25 66 -28 l62 -3 0 361 0 360 -80 0 -80 0 0 -288 c0
-312 1 -309 -55 -326 -56 -16 -64 29 -65 352 l0 262 -80 0 -80 0 0 -285z"/>
</g>
</svg>
